<mxfile host="app.diagrams.net" agent="Mozilla/5.0 (Windows NT 10.0; Win64; x64) AppleWebKit/537.36 (KHTML, like Gecko) Chrome/130.0.0.0 Safari/537.36" version="24.8.4">
  <diagram name="Seite-1" id="cieXSya045pmkeVN-oVW">
    <mxGraphModel dx="1185" dy="632" grid="1" gridSize="10" guides="1" tooltips="1" connect="1" arrows="1" fold="1" page="1" pageScale="1" pageWidth="827" pageHeight="1169" math="0" shadow="0">
      <root>
        <mxCell id="0" />
        <mxCell id="1" parent="0" />
        <mxCell id="JXXJmoB80nkJDnB-bruB-1" value="" style="rounded=0;whiteSpace=wrap;html=1;" vertex="1" parent="1">
          <mxGeometry x="40" y="90" width="810" height="480" as="geometry" />
        </mxCell>
        <mxCell id="JXXJmoB80nkJDnB-bruB-2" value="OrangeHRM" style="text;html=1;align=center;verticalAlign=middle;whiteSpace=wrap;rounded=0;" vertex="1" parent="1">
          <mxGeometry x="60" y="100" width="60" height="30" as="geometry" />
        </mxCell>
        <mxCell id="JXXJmoB80nkJDnB-bruB-19" style="edgeStyle=orthogonalEdgeStyle;rounded=0;orthogonalLoop=1;jettySize=auto;html=1;entryX=0;entryY=0;entryDx=0;entryDy=0;entryPerimeter=0;" edge="1" parent="1" target="JXXJmoB80nkJDnB-bruB-18">
          <mxGeometry relative="1" as="geometry">
            <mxPoint x="510.58857142857147" y="290" as="sourcePoint" />
            <mxPoint x="630" y="212.58000000000004" as="targetPoint" />
            <Array as="points">
              <mxPoint x="511" y="210" />
            </Array>
          </mxGeometry>
        </mxCell>
        <mxCell id="JXXJmoB80nkJDnB-bruB-20" value="has" style="edgeLabel;html=1;align=center;verticalAlign=middle;resizable=0;points=[];" vertex="1" connectable="0" parent="JXXJmoB80nkJDnB-bruB-19">
          <mxGeometry x="-0.3744" relative="1" as="geometry">
            <mxPoint as="offset" />
          </mxGeometry>
        </mxCell>
        <mxCell id="JXXJmoB80nkJDnB-bruB-3" value="Employee" style="swimlane;fontStyle=0;childLayout=stackLayout;horizontal=1;startSize=30;horizontalStack=0;resizeParent=1;resizeParentMax=0;resizeLast=0;collapsible=1;marginBottom=0;whiteSpace=wrap;html=1;" vertex="1" parent="1">
          <mxGeometry x="440" y="290" width="140" height="60" as="geometry" />
        </mxCell>
        <mxCell id="JXXJmoB80nkJDnB-bruB-4" value="id:int" style="text;strokeColor=none;fillColor=none;align=left;verticalAlign=middle;spacingLeft=4;spacingRight=4;overflow=hidden;points=[[0,0.5],[1,0.5]];portConstraint=eastwest;rotatable=0;whiteSpace=wrap;html=1;" vertex="1" parent="JXXJmoB80nkJDnB-bruB-3">
          <mxGeometry y="30" width="140" height="30" as="geometry" />
        </mxCell>
        <mxCell id="JXXJmoB80nkJDnB-bruB-7" value="Supervisor" style="swimlane;fontStyle=0;childLayout=stackLayout;horizontal=1;startSize=30;horizontalStack=0;resizeParent=1;resizeParentMax=0;resizeLast=0;collapsible=1;marginBottom=0;whiteSpace=wrap;html=1;" vertex="1" parent="1">
          <mxGeometry x="210" y="290" width="140" height="60" as="geometry" />
        </mxCell>
        <mxCell id="JXXJmoB80nkJDnB-bruB-8" value="id:int" style="text;strokeColor=none;fillColor=none;align=left;verticalAlign=middle;spacingLeft=4;spacingRight=4;overflow=hidden;points=[[0,0.5],[1,0.5]];portConstraint=eastwest;rotatable=0;whiteSpace=wrap;html=1;" vertex="1" parent="JXXJmoB80nkJDnB-bruB-7">
          <mxGeometry y="30" width="140" height="30" as="geometry" />
        </mxCell>
        <mxCell id="JXXJmoB80nkJDnB-bruB-9" style="edgeStyle=orthogonalEdgeStyle;rounded=0;orthogonalLoop=1;jettySize=auto;html=1;entryX=-0.002;entryY=0;entryDx=0;entryDy=0;entryPerimeter=0;endArrow=block;endFill=0;strokeWidth=1;" edge="1" parent="1" source="JXXJmoB80nkJDnB-bruB-7" target="JXXJmoB80nkJDnB-bruB-4">
          <mxGeometry relative="1" as="geometry">
            <Array as="points">
              <mxPoint x="380" y="320" />
              <mxPoint x="380" y="320" />
            </Array>
          </mxGeometry>
        </mxCell>
        <mxCell id="JXXJmoB80nkJDnB-bruB-10" style="edgeStyle=orthogonalEdgeStyle;rounded=0;orthogonalLoop=1;jettySize=auto;html=1;startArrow=classic;startFill=1;exitX=0.515;exitY=0.978;exitDx=0;exitDy=0;exitPerimeter=0;" edge="1" parent="1" source="JXXJmoB80nkJDnB-bruB-4">
          <mxGeometry relative="1" as="geometry">
            <mxPoint x="211" y="320" as="targetPoint" />
            <Array as="points">
              <mxPoint x="512" y="420" />
              <mxPoint x="150" y="420" />
              <mxPoint x="150" y="320" />
            </Array>
          </mxGeometry>
        </mxCell>
        <mxCell id="JXXJmoB80nkJDnB-bruB-11" value="has" style="edgeLabel;html=1;align=center;verticalAlign=middle;resizable=0;points=[];" vertex="1" connectable="0" parent="JXXJmoB80nkJDnB-bruB-10">
          <mxGeometry x="-0.2883" y="-2" relative="1" as="geometry">
            <mxPoint x="-52" y="2" as="offset" />
          </mxGeometry>
        </mxCell>
        <mxCell id="JXXJmoB80nkJDnB-bruB-12" value="0...n" style="edgeLabel;html=1;align=center;verticalAlign=middle;resizable=0;points=[];" vertex="1" connectable="0" parent="JXXJmoB80nkJDnB-bruB-10">
          <mxGeometry x="0.7358" y="-2" relative="1" as="geometry">
            <mxPoint x="-2" y="27" as="offset" />
          </mxGeometry>
        </mxCell>
        <mxCell id="JXXJmoB80nkJDnB-bruB-13" value="1...n" style="edgeLabel;html=1;align=center;verticalAlign=middle;resizable=0;points=[];" vertex="1" connectable="0" parent="JXXJmoB80nkJDnB-bruB-10">
          <mxGeometry x="-0.5863" y="-1" relative="1" as="geometry">
            <mxPoint x="50" y="-39" as="offset" />
          </mxGeometry>
        </mxCell>
        <mxCell id="JXXJmoB80nkJDnB-bruB-14" style="edgeStyle=orthogonalEdgeStyle;rounded=0;orthogonalLoop=1;jettySize=auto;html=1;elbow=horizontal;" edge="1" parent="1" source="JXXJmoB80nkJDnB-bruB-3" target="JXXJmoB80nkJDnB-bruB-3">
          <mxGeometry relative="1" as="geometry" />
        </mxCell>
        <mxCell id="JXXJmoB80nkJDnB-bruB-15" value="Depends on" style="edgeLabel;html=1;align=center;verticalAlign=middle;resizable=0;points=[];" vertex="1" connectable="0" parent="JXXJmoB80nkJDnB-bruB-14">
          <mxGeometry x="-0.4196" relative="1" as="geometry">
            <mxPoint x="47" y="10" as="offset" />
          </mxGeometry>
        </mxCell>
        <mxCell id="JXXJmoB80nkJDnB-bruB-16" value="0...n" style="edgeLabel;html=1;align=center;verticalAlign=middle;resizable=0;points=[];" vertex="1" connectable="0" parent="JXXJmoB80nkJDnB-bruB-14">
          <mxGeometry x="-0.6673" y="3" relative="1" as="geometry">
            <mxPoint x="20" y="33" as="offset" />
          </mxGeometry>
        </mxCell>
        <mxCell id="JXXJmoB80nkJDnB-bruB-17" value="Leave" style="swimlane;fontStyle=0;childLayout=stackLayout;horizontal=1;startSize=30;horizontalStack=0;resizeParent=1;resizeParentMax=0;resizeLast=0;collapsible=1;marginBottom=0;whiteSpace=wrap;html=1;" vertex="1" parent="1">
          <mxGeometry x="560" y="180" width="140" height="60" as="geometry" />
        </mxCell>
        <mxCell id="JXXJmoB80nkJDnB-bruB-18" value="id:int" style="text;strokeColor=none;fillColor=none;align=left;verticalAlign=middle;spacingLeft=4;spacingRight=4;overflow=hidden;points=[[0,0.5],[1,0.5]];portConstraint=eastwest;rotatable=0;whiteSpace=wrap;html=1;" vertex="1" parent="JXXJmoB80nkJDnB-bruB-17">
          <mxGeometry y="30" width="140" height="30" as="geometry" />
        </mxCell>
        <mxCell id="JXXJmoB80nkJDnB-bruB-23" value="Customer" style="swimlane;fontStyle=0;childLayout=stackLayout;horizontal=1;startSize=30;horizontalStack=0;resizeParent=1;resizeParentMax=0;resizeLast=0;collapsible=1;marginBottom=0;whiteSpace=wrap;html=1;" vertex="1" parent="1">
          <mxGeometry x="270" y="470" width="140" height="60" as="geometry" />
        </mxCell>
        <mxCell id="JXXJmoB80nkJDnB-bruB-24" value="customerID: int" style="text;strokeColor=none;fillColor=none;align=left;verticalAlign=middle;spacingLeft=4;spacingRight=4;overflow=hidden;points=[[0,0.5],[1,0.5]];portConstraint=eastwest;rotatable=0;whiteSpace=wrap;html=1;" vertex="1" parent="JXXJmoB80nkJDnB-bruB-23">
          <mxGeometry y="30" width="140" height="30" as="geometry" />
        </mxCell>
        <mxCell id="JXXJmoB80nkJDnB-bruB-26" value="Key Performance Indicator" style="swimlane;fontStyle=0;childLayout=stackLayout;horizontal=1;startSize=30;horizontalStack=0;resizeParent=1;resizeParentMax=0;resizeLast=0;collapsible=1;marginBottom=0;whiteSpace=wrap;html=1;" vertex="1" parent="1">
          <mxGeometry x="300" y="130" width="140" height="60" as="geometry" />
        </mxCell>
        <mxCell id="JXXJmoB80nkJDnB-bruB-27" value="id: int" style="text;strokeColor=none;fillColor=none;align=left;verticalAlign=middle;spacingLeft=4;spacingRight=4;overflow=hidden;points=[[0,0.5],[1,0.5]];portConstraint=eastwest;rotatable=0;whiteSpace=wrap;html=1;" vertex="1" parent="JXXJmoB80nkJDnB-bruB-26">
          <mxGeometry y="30" width="140" height="30" as="geometry" />
        </mxCell>
        <mxCell id="JXXJmoB80nkJDnB-bruB-28" style="edgeStyle=orthogonalEdgeStyle;rounded=0;orthogonalLoop=1;jettySize=auto;html=1;entryX=0.489;entryY=0.965;entryDx=0;entryDy=0;entryPerimeter=0;" edge="1" parent="1" source="JXXJmoB80nkJDnB-bruB-3" target="JXXJmoB80nkJDnB-bruB-27">
          <mxGeometry relative="1" as="geometry">
            <Array as="points">
              <mxPoint x="480" y="260" />
              <mxPoint x="368" y="260" />
            </Array>
          </mxGeometry>
        </mxCell>
        <mxCell id="JXXJmoB80nkJDnB-bruB-29" value="isAssigned" style="edgeLabel;html=1;align=center;verticalAlign=middle;resizable=0;points=[];" vertex="1" connectable="0" parent="JXXJmoB80nkJDnB-bruB-28">
          <mxGeometry x="0.2773" y="-2" relative="1" as="geometry">
            <mxPoint x="40" y="2" as="offset" />
          </mxGeometry>
        </mxCell>
        <mxCell id="JXXJmoB80nkJDnB-bruB-30" value="1...n" style="edgeLabel;html=1;align=center;verticalAlign=middle;resizable=0;points=[];" vertex="1" connectable="0" parent="JXXJmoB80nkJDnB-bruB-28">
          <mxGeometry x="0.7634" y="2" relative="1" as="geometry">
            <mxPoint as="offset" />
          </mxGeometry>
        </mxCell>
        <mxCell id="JXXJmoB80nkJDnB-bruB-37" style="edgeStyle=orthogonalEdgeStyle;rounded=0;orthogonalLoop=1;jettySize=auto;html=1;entryX=1;entryY=0.5;entryDx=0;entryDy=0;" edge="1" parent="1" source="JXXJmoB80nkJDnB-bruB-31" target="JXXJmoB80nkJDnB-bruB-23">
          <mxGeometry relative="1" as="geometry" />
        </mxCell>
        <mxCell id="JXXJmoB80nkJDnB-bruB-38" value="0...n" style="edgeLabel;html=1;align=center;verticalAlign=middle;resizable=0;points=[];" vertex="1" connectable="0" parent="JXXJmoB80nkJDnB-bruB-37">
          <mxGeometry x="0.309" y="-2" relative="1" as="geometry">
            <mxPoint y="-8" as="offset" />
          </mxGeometry>
        </mxCell>
        <mxCell id="JXXJmoB80nkJDnB-bruB-31" value="Organization" style="swimlane;fontStyle=0;childLayout=stackLayout;horizontal=1;startSize=30;horizontalStack=0;resizeParent=1;resizeParentMax=0;resizeLast=0;collapsible=1;marginBottom=0;whiteSpace=wrap;html=1;" vertex="1" parent="1">
          <mxGeometry x="480" y="470" width="140" height="60" as="geometry" />
        </mxCell>
        <mxCell id="JXXJmoB80nkJDnB-bruB-32" value="id:int" style="text;strokeColor=none;fillColor=none;align=left;verticalAlign=middle;spacingLeft=4;spacingRight=4;overflow=hidden;points=[[0,0.5],[1,0.5]];portConstraint=eastwest;rotatable=0;whiteSpace=wrap;html=1;" vertex="1" parent="JXXJmoB80nkJDnB-bruB-31">
          <mxGeometry y="30" width="140" height="30" as="geometry" />
        </mxCell>
        <mxCell id="JXXJmoB80nkJDnB-bruB-33" style="edgeStyle=orthogonalEdgeStyle;rounded=0;orthogonalLoop=1;jettySize=auto;html=1;entryX=0.79;entryY=0.978;entryDx=0;entryDy=0;entryPerimeter=0;endArrow=classic;endFill=1;startArrow=classic;startFill=1;" edge="1" parent="1" source="JXXJmoB80nkJDnB-bruB-31" target="JXXJmoB80nkJDnB-bruB-4">
          <mxGeometry relative="1" as="geometry" />
        </mxCell>
        <mxCell id="JXXJmoB80nkJDnB-bruB-34" value="0...n" style="edgeLabel;html=1;align=center;verticalAlign=middle;resizable=0;points=[];" vertex="1" connectable="0" parent="JXXJmoB80nkJDnB-bruB-33">
          <mxGeometry x="0.6764" y="2" relative="1" as="geometry">
            <mxPoint as="offset" />
          </mxGeometry>
        </mxCell>
        <mxCell id="JXXJmoB80nkJDnB-bruB-35" value="1...1" style="edgeLabel;html=1;align=center;verticalAlign=middle;resizable=0;points=[];" vertex="1" connectable="0" parent="JXXJmoB80nkJDnB-bruB-33">
          <mxGeometry x="-0.6151" y="1" relative="1" as="geometry">
            <mxPoint as="offset" />
          </mxGeometry>
        </mxCell>
        <mxCell id="JXXJmoB80nkJDnB-bruB-36" value="has" style="edgeLabel;html=1;align=center;verticalAlign=middle;resizable=0;points=[];" vertex="1" connectable="0" parent="JXXJmoB80nkJDnB-bruB-33">
          <mxGeometry x="0.1485" y="3" relative="1" as="geometry">
            <mxPoint x="2" y="9" as="offset" />
          </mxGeometry>
        </mxCell>
      </root>
    </mxGraphModel>
  </diagram>
</mxfile>
